<?xml version="1.0" standalone="no"?>
<!DOCTYPE svg PUBLIC "-//W3C//DTD SVG 20010904//EN"
 "http://www.w3.org/TR/2001/REC-SVG-20010904/DTD/svg10.dtd">
<svg version="1.0" xmlns="http://www.w3.org/2000/svg"
 width="1500.000000pt" height="1500.000000pt" viewBox="0 0 1500.000000 1500.000000"
 preserveAspectRatio="xMidYMid meet">
<metadata>
Created by potrace 1.16, written by Peter Selinger 2001-2019
</metadata>
<g transform="translate(0.000000,1500.000000) scale(0.100000,-0.100000)"
fill="#ffb300" stroke="none">
<path d="M4400 11774 c-152 -41 -267 -173 -290 -336 -12 -82 -12 -4970 -1
-5062 18 -136 105 -256 229 -314 l57 -27 1390 -5 1390 -5 0 -365 0 -365 -24
-42 c-43 -76 -20 -73 -646 -73 l-557 0 -25 -27 c-22 -26 -193 -374 -193 -395
0 -5 11 -20 25 -33 l24 -25 2481 0 c2712 0 2540 -4 2540 55 0 27 -163 381
-186 405 -13 13 -91 16 -539 20 l-524 5 -37 35 c-64 61 -64 61 -64 455 l0 355
1453 2 1452 3 58 28 c80 40 151 112 190 194 l32 68 3 2560 c2 2324 1 2564 -14
2615 -34 115 -106 199 -222 253 l-67 32 -3940 2 c-3446 2 -3947 0 -3995 -13z
m7870 -2864 l0 -2450 -3895 0 -3895 0 0 2450 0 2450 3895 0 3895 0 0 -2450z
m-3139 -3027 c85 -72 74 -195 -24 -242 -43 -21 -51 -21 -778 -21 -702 0 -736
1 -776 20 -25 11 -51 33 -63 52 -38 63 -17 162 44 199 30 18 65 19 798 19
l766 0 33 -27z"/>
<path d="M399 11637 c-73 -37 -130 -104 -151 -176 -11 -38 -13 -608 -13 -3271
l0 -3225 22 -48 c13 -27 36 -65 52 -86 l30 -37 3 -215 c3 -211 3 -215 31 -271
32 -65 89 -121 156 -152 l46 -21 1425 0 1425 0 50 25 c64 31 124 91 155 155
23 48 25 60 28 269 4 217 4 219 29 245 13 14 34 44 46 66 l22 40 3 3253 c2
3227 2 3254 -18 3299 -32 72 -76 119 -142 152 l-61 31 -1538 0 -1537 0 -63
-33z m2811 -388 c77 -36 121 -77 161 -151 l34 -63 3 -232 3 -233 -1410 0
-1411 0 0 220 c0 195 2 225 20 273 37 97 124 175 229 203 36 10 302 12 1181
11 l1135 -2 55 -26z m200 -1099 l0 -290 -1410 0 -1410 0 0 290 0 290 1410 0
1410 0 0 -290z m-2 -712 l2 -288 -1410 0 -1410 0 0 283 c0 156 3 287 7 290 3
4 637 6 1407 5 l1401 -3 3 -287z m0 -585 c-3 -140 -6 -163 -26 -204 -37 -75
-87 -125 -160 -161 l-67 -33 -1155 0 -1155 0 -60 28 c-76 36 -147 110 -175
183 -17 46 -20 78 -20 199 l0 145 1411 0 1411 0 -4 -157z m-28 -4271 c0 -102
-4 -152 -12 -160 -17 -17 -2719 -17 -2736 0 -8 8 -12 58 -12 160 l0 148 1380
0 1380 0 0 -148z"/>
<path d="M4052 4560 c-41 -10 -87 -52 -114 -104 -19 -37 -355 -950 -384 -1045
-20 -63 6 -118 72 -157 l49 -29 4574 -3 c3233 -1 4585 1 4613 9 22 6 58 27 80
47 70 66 73 51 -136 625 -102 279 -198 531 -213 559 -32 60 -64 86 -119 98
-48 12 -8375 11 -8422 0z m8205 -86 c15 -12 36 -35 46 -52 27 -45 307 -820
307 -848 0 -36 -53 -90 -102 -103 -33 -9 -1074 -11 -4263 -9 -4016 3 -4222 4
-4252 21 -41 22 -66 60 -65 95 1 35 283 811 311 856 12 18 36 41 54 50 29 14
377 15 3984 13 l3952 -2 28 -21z"/>
<path d="M13305 4401 c-77 -4 -158 -13 -180 -21 -123 -41 -175 -131 -175 -300
1 -290 195 -540 470 -604 97 -23 1078 -23 1165 -1 138 36 186 113 186 295 0
106 -21 192 -67 280 -66 126 -168 226 -296 291 -115 58 -146 61 -573 64 -214
1 -453 0 -530 -4z"/>
</g>
</svg>
