<?xml version="1.0" standalone="no"?>
<!DOCTYPE svg PUBLIC "-//W3C//DTD SVG 20010904//EN"
 "http://www.w3.org/TR/2001/REC-SVG-20010904/DTD/svg10.dtd">
<svg version="1.0" xmlns="http://www.w3.org/2000/svg"
 width="512px" height="512px" viewBox="0 0 900.000000 900.000000"
 preserveAspectRatio="xMidYMid meet" >
<metadata>
Created by potrace 1.16, written by Peter Selinger 2001-2019
</metadata>
<g transform="translate(0.000000,900.000000) scale(0.100000,-0.100000)"
fill="#ffb300" stroke="none">
<path d="M1999 8149 c-126 -18 -276 -107 -350 -206 -42 -55 -739 -1441 -769
-1527 -39 -113 -41 -181 -38 -971 3 -756 3 -760 26 -825 27 -81 68 -151 122
-212 l42 -48 -42 -47 c-57 -64 -96 -134 -123 -218 -22 -69 -22 -80 -22 -585 0
-514 0 -515 23 -580 30 -83 64 -141 119 -208 l45 -52 -42 -48 c-57 -63 -96
-133 -123 -217 -22 -69 -22 -80 -22 -580 0 -469 1 -515 19 -570 66 -215 232
-364 447 -401 73 -12 508 -14 3234 -12 3026 3 3152 4 3205 21 190 64 329 205
387 392 16 55 18 103 18 570 0 500 0 511 -22 580 -27 84 -66 154 -123 217
l-41 48 46 56 c59 73 88 123 117 204 23 65 23 66 23 580 0 505 0 516 -22 585
-27 84 -66 154 -123 218 l-42 47 42 48 c54 61 95 131 122 212 23 65 23 69 26
820 3 782 0 865 -38 974 -29 87 -727 1475 -769 1529 -44 59 -137 131 -211 165
-120 53 -14 51 -2645 50 -1342 0 -2465 -4 -2496 -9z m5000 -288 c44 -14 107
-58 130 -90 10 -14 176 -341 370 -726 276 -549 355 -714 365 -765 7 -36 11
-71 8 -78 -3 -10 -684 -12 -3376 -10 l-3371 3 4 45 c2 25 12 70 24 100 11 30
172 360 359 733 410 820 384 785 588 796 208 12 4863 4 4899 -8z m873 -1963
c2 -7 4 -274 3 -593 -2 -578 -2 -580 -25 -632 -13 -31 -42 -71 -70 -97 -89
-84 231 -76 -3300 -74 l-3145 3 -45 21 c-60 29 -108 78 -137 142 l-25 52 1
593 c0 325 1 593 1 595 0 1 1516 2 3369 2 2686 0 3370 -3 3373 -12z m-170
-1700 c57 -26 123 -93 149 -151 l23 -52 0 -480 c0 -475 -1 -481 -23 -530 -28
-63 -72 -109 -136 -143 l-50 -27 -3165 0 -3165 0 -50 27 c-64 34 -108 80 -135
141 -21 48 -22 59 -21 534 1 467 2 486 21 531 35 78 102 137 179 158 36 10
723 12 3191 11 2917 -2 3148 -3 3182 -19z m-19 -1682 c86 -31 149 -95 177
-180 16 -51 23 -880 8 -974 -20 -122 -109 -211 -230 -230 -93 -14 -6272 -8
-6317 7 -83 26 -160 105 -181 183 -16 58 -15 966 1 1015 27 85 89 148 178 179
55 20 6309 19 6364 0z"/>
<path d="M2034 7571 c-90 -55 -81 -195 16 -243 33 -17 143 -18 1885 -18 1812
0 1851 1 1893 20 34 15 47 29 63 65 26 58 17 106 -27 154 l-32 36 -1884 3
c-1829 2 -1884 1 -1914 -17z"/>
<path d="M6253 7570 c-94 -57 -80 -202 24 -246 25 -11 101 -14 335 -14 338 0
351 2 395 69 41 61 21 154 -41 192 -29 18 -56 19 -356 19 -305 0 -327 -1 -357
-20z"/>
<path d="M6752 5601 c-73 -27 -112 -53 -166 -111 -242 -258 -79 -677 274 -707
172 -14 331 80 413 246 30 62 32 72 32 171 -1 86 -5 116 -24 163 -32 82 -123
177 -209 219 -59 29 -76 33 -166 36 -81 2 -112 -2 -154 -17z m237 -261 c87
-61 93 -195 12 -263 -151 -126 -359 61 -248 223 49 73 164 92 236 40z"/>
<path d="M1753 5460 c-59 -36 -65 -59 -61 -270 l3 -189 29 -30 c54 -56 134
-64 191 -19 48 37 55 72 55 254 0 150 -2 170 -21 204 -11 20 -34 44 -49 53
-38 23 -107 22 -147 -3z"/>
<path d="M2454 5461 c-55 -34 -64 -69 -64 -255 0 -182 7 -217 55 -254 57 -45
137 -37 191 19 l29 30 3 189 c4 211 -2 234 -61 270 -41 26 -112 26 -153 1z"/>
<path d="M3151 5454 c-54 -45 -61 -75 -61 -248 0 -173 11 -221 59 -255 66 -47
165 -28 206 41 22 37 27 131 16 316 -6 98 -8 103 -38 134 -27 27 -41 32 -90
36 -53 4 -62 1 -92 -24z"/>
<path d="M3863 5460 c-59 -36 -65 -59 -61 -270 l3 -189 29 -30 c53 -56 126
-64 186 -21 52 37 60 71 60 249 0 180 -7 210 -59 254 -41 34 -109 37 -158 7z"/>
<path d="M4564 5461 c-55 -34 -64 -69 -64 -258 0 -140 3 -174 18 -202 50 -99
177 -105 239 -12 22 32 23 44 23 208 0 196 -8 230 -62 263 -42 26 -113 26
-154 1z"/>
<path d="M5110 5302 c-50 -50 -59 -94 -31 -156 16 -37 29 -51 63 -66 41 -18
69 -20 488 -20 510 0 496 -2 539 83 30 60 23 104 -24 155 l-33 37 -482 3 -482
3 -38 -39z"/>
<path d="M6793 3925 c-149 -40 -260 -144 -303 -281 -50 -163 -5 -323 123 -441
179 -165 462 -138 612 59 125 166 111 398 -34 547 -54 56 -141 103 -219 120
-68 14 -114 13 -179 -4z m184 -263 c73 -40 104 -153 61 -226 -37 -63 -69 -81
-146 -81 -55 0 -73 4 -101 24 -37 27 -70 90 -71 136 0 40 38 114 71 138 49 35
130 39 186 9z"/>
<path d="M1770 3783 c-19 -10 -45 -33 -57 -52 -22 -32 -23 -43 -23 -216 0
-173 1 -184 23 -216 14 -20 41 -41 69 -53 45 -18 48 -19 92 -2 27 10 55 31 68
49 21 30 23 44 26 209 3 150 1 183 -14 213 -33 70 -118 102 -184 68z"/>
<path d="M2470 3778 c-72 -37 -80 -62 -80 -263 0 -147 3 -175 19 -205 49 -93
187 -97 241 -7 18 29 20 51 20 212 0 161 -2 183 -20 212 -40 67 -110 87 -180
51z"/>
<path d="M3172 3781 c-34 -16 -47 -30 -63 -66 -18 -41 -20 -63 -17 -215 3
-152 5 -171 24 -196 68 -92 170 -92 238 0 19 25 21 41 21 211 0 170 -2 186
-21 211 -51 68 -112 87 -182 55z"/>
<path d="M3885 3786 c-16 -7 -41 -26 -55 -41 -25 -26 -25 -29 -28 -218 -2
-177 -1 -195 17 -224 43 -68 125 -87 194 -44 59 36 69 79 65 277 -2 143 -6
173 -21 196 -38 56 -116 80 -172 54z"/>
<path d="M4605 3793 c-39 -10 -84 -53 -95 -91 -7 -23 -10 -102 -8 -209 3 -198
9 -213 92 -247 46 -20 46 -20 93 0 29 12 56 32 70 53 22 32 23 43 23 215 0
162 -2 184 -20 213 -32 54 -97 82 -155 66z"/>
<path d="M5142 3640 c-34 -15 -47 -29 -63 -66 -28 -62 -19 -106 29 -155 l37
-36 215 -5 c118 -3 330 -5 470 -4 290 1 303 4 340 81 25 51 25 69 1 122 -37
79 -26 78 -536 80 -429 3 -452 2 -493 -17z"/>
<path d="M6780 2234 c-102 -27 -183 -87 -241 -176 -125 -194 -73 -448 118
-579 134 -92 333 -93 465 -1 132 92 195 221 186 381 -15 261 -272 444 -528
375z m208 -261 c39 -29 69 -77 77 -124 6 -32 2 -50 -19 -92 -55 -111 -182
-139 -269 -58 -42 38 -57 73 -57 131 0 74 37 133 100 159 40 17 136 8 168 -16z"/>
<path d="M1775 2096 c-16 -7 -41 -26 -55 -41 -25 -26 -25 -30 -28 -215 -4
-211 2 -234 61 -271 45 -28 127 -22 163 12 47 43 54 75 54 251 0 178 -8 212
-61 251 -34 24 -96 31 -134 13z"/>
<path d="M2471 2092 c-70 -35 -76 -53 -79 -250 -4 -198 3 -230 62 -270 65 -44
166 -20 201 48 14 26 16 62 13 220 -3 185 -3 189 -28 216 -28 30 -78 54 -112
54 -13 0 -38 -8 -57 -18z"/>
<path d="M3170 2092 c-23 -11 -43 -33 -58 -62 -22 -43 -23 -54 -20 -215 3
-145 6 -175 21 -198 59 -90 195 -87 243 5 14 27 17 64 18 208 1 158 -1 178
-19 209 -38 65 -117 87 -185 53z"/>
<path d="M3873 2094 c-66 -33 -73 -59 -73 -265 0 -165 2 -187 20 -216 57 -94
202 -80 246 24 10 23 14 80 14 195 0 178 -8 212 -61 251 -37 27 -106 32 -146
11z"/>
<path d="M4581 2092 c-70 -35 -76 -52 -79 -252 -3 -151 -1 -185 13 -215 47
-98 197 -100 249 -3 15 29 17 57 14 220 -3 183 -3 187 -28 213 -52 56 -108 68
-169 37z"/>
<path d="M5142 1953 c-90 -44 -105 -158 -31 -229 l30 -29 473 -3 472 -3 35 23
c70 47 86 132 39 199 -42 59 -46 59 -537 59 -392 0 -452 -2 -481 -17z"/>
</g>
</svg>
